<?xml version="1.0" encoding="UTF-8" standalone="no"?>
<svg
   version="1.0"
   width="120.000000pt"
   height="120.000000pt"
   viewBox="0 0 120.000000 120.000000"
   preserveAspectRatio="xMidYMid meet"
   id="svg21"
   sodipodi:docname="tree-life-yggdrasil-world-tree-mythological-55904540.svg"
   inkscape:version="1.3 (0e150ed, 2023-07-21)"
   xmlns:inkscape="http://www.inkscape.org/namespaces/inkscape"
   xmlns:sodipodi="http://sodipodi.sourceforge.net/DTD/sodipodi-0.dtd"
   xmlns="http://www.w3.org/2000/svg"
   xmlns:svg="http://www.w3.org/2000/svg">
  <defs
     id="defs21" />
  <sodipodi:namedview
     id="namedview21"
     pagecolor="#ffffff"
     bordercolor="#666666"
     borderopacity="1.0"
     inkscape:showpageshadow="2"
     inkscape:pageopacity="0.0"
     inkscape:pagecheckerboard="0"
     inkscape:deskcolor="#d1d1d1"
     inkscape:document-units="pt"
     inkscape:zoom="1.475"
     inkscape:cx="79.661017"
     inkscape:cy="80"
     inkscape:window-width="1312"
     inkscape:window-height="429"
     inkscape:window-x="47"
     inkscape:window-y="205"
     inkscape:window-maximized="0"
     inkscape:current-layer="svg21" />
  <g
     transform="translate(0.000000,120.000000) scale(0.100000,-0.100000)"
     fill="#000000"
     stroke="none"
     id="g21"
     style="fill:#b0ad26;fill-opacity:1">
    <path
       d="M500 1139 c-95 -16 -214 -80 -289 -157 -214 -218 -212 -553 4 -767 82 -82 145 -118 251 -145 98 -25 170 -25 268 0 107 27 169 63 251 145 174 174 212 420 98 638 -54 104 -140 187 -245 237 -116 55 -213 69 -338 49z m65 -41 c8 -25 18 -35 45 -43 24 -7 35 -16 35 -29 0 -11 6 -21 13 -23 6 -3 12 2 12 9 0 26 -25 68 -37 63 -7 -2 -13 0 -13 5 0 5 -10 19 -22 31 l-23 22 69 -6 c76 -7 89 -13 65 -30 -25 -18 -34 -56 -15 -63 24 -9 46 14 46 48 0 26 3 29 23 22 12 -3 35 -13 51 -21 25 -13 27 -17 13 -25 -18 -9 -24 -38 -8 -38 5 0 15 10 23 22 14 21 15 21 46 2 38 -22 39 -25 12 -42 -20 -12 -28 -52 -11 -52 15 0 41 30 41 47 0 21 36 -11 91 -80 45 -57 48 -67 15 -67 -26 0 -51 -24 -41 -40 10 -16 33 -12 54 12 l21 21 20 -44 c27 -60 26 -79 -4 -79 -28 0 -51 -24 -42 -45 8 -21 32 -19 54 5 l19 21 7 -23 c17 -67 -11 -264 -40 -275 -8 -3 -12 -9 -9 -13 18 -30 -57 -76 -97 -61 -14 5 -32 20 -40 33 l-16 25 49 -10 c34 -7 57 -6 72 1 20 10 19 10 -8 6 -16 -3 -66 5 -110 17 -118 32 -132 33 -160 15 -48 -31 -95 -10 -95 43 0 45 39 72 137 92 65 14 97 27 126 50 28 23 42 28 50 20 13 -13 47 -15 47 -1 0 5 -7 13 -16 18 -11 6 -13 11 -5 16 6 4 11 18 11 32 0 14 -4 22 -10 19 -6 -3 -10 -15 -10 -25 0 -10 -13 -28 -29 -39 l-29 -21 -5 21 c-3 13 -10 18 -17 14 -6 -4 -9 -18 -6 -30 5 -19 0 -25 -26 -34 -44 -15 -45 -15 -40 20 3 24 1 30 -9 27 -8 -2 -15 -17 -17 -31 -3 -26 -6 -27 -62 -27 -32 0 -62 5 -65 11 -9 13 23 49 43 49 9 0 12 -3 9 -7 -8 -7 11 -33 25 -33 6 0 8 10 4 23 -5 21 -1 23 64 34 88 13 142 45 138 81 -2 14 -8 27 -14 29 -16 5 -26 -27 -13 -43 8 -10 4 -16 -18 -27 -60 -30 -102 -30 -72 0 16 16 -7 53 -32 53 -16 0 -18 -3 -9 -19 5 -11 15 -21 22 -24 22 -7 -11 -37 -40 -37 -20 0 -23 3 -14 12 14 14 16 64 3 72 -16 10 -44 -32 -39 -59 4 -21 1 -26 -21 -31 -14 -4 -36 -13 -48 -20 -40 -25 -25 -1 51 79 l73 79 54 -5 c30 -2 44 -2 31 0 -29 6 -23 29 6 25 12 -2 22 2 22 7 0 6 -5 11 -11 11 -5 0 -8 4 -5 9 10 15 -12 61 -29 61 -21 0 -19 -37 3 -49 16 -10 16 -12 -2 -26 -26 -19 -34 -19 -39 3 -4 13 -5 11 -6 -5 -1 -14 -7 -23 -17 -23 -11 0 -14 5 -10 16 6 17 -9 54 -23 54 -14 0 -19 -36 -9 -54 14 -25 1 -32 -20 -13 -10 10 -22 17 -25 17 -14 0 -7 -29 9 -38 13 -7 7 -17 -31 -60 -26 -29 -53 -52 -61 -52 -21 0 -17 34 7 56 12 10 34 45 50 76 34 68 71 98 100 80 27 -17 41 -15 34 7 -3 12 0 21 10 25 30 11 12 76 -22 76 -18 0 -16 -49 2 -56 17 -7 10 -24 -10 -24 -7 0 -15 10 -17 23 -4 28 -23 20 -23 -11 -1 -23 -31 -50 -43 -38 -3 4 2 22 11 42 19 38 10 74 -18 74 -22 0 -18 -31 5 -37 16 -4 18 -9 9 -25 -8 -15 -13 -17 -25 -7 -8 6 -18 9 -22 5 -4 -4 1 -13 11 -20 23 -18 22 -36 -7 -86 -23 -40 -25 -41 -35 -22 -14 26 -14 45 -1 37 12 -7 40 12 40 26 0 5 -11 9 -25 9 -29 0 -30 5 -10 40 20 34 19 38 -10 38 -25 0 -35 -23 -14 -30 8 -3 7 -16 -2 -46 -9 -32 -10 -51 -1 -79 13 -42 3 -68 -29 -78 -32 -11 -44 17 -15 32 27 14 40 39 25 49 -5 3 -21 -1 -34 -10 -28 -18 -40 -7 -31 30 5 17 13 24 31 24 30 0 41 16 19 28 -14 8 -14 12 -3 31 13 20 12 24 -10 42 -13 10 -27 19 -32 19 -17 0 -9 -29 12 -43 20 -15 20 -16 3 -42 l-18 -27 -11 39 c-7 22 -20 54 -31 72 -15 26 -16 33 -6 40 8 5 12 21 10 36 -3 28 -4 28 -21 10 -11 -11 -17 -27 -14 -41 3 -16 -2 -24 -16 -28 -11 -3 -16 -9 -12 -16 4 -7 18 -9 31 -6 13 4 24 4 24 2 0 -2 3 -11 6 -19 4 -11 0 -14 -13 -11 -10 2 -24 0 -32 -5 -22 -14 6 -44 36 -38 22 4 23 1 23 -54 0 -31 3 -65 6 -74 6 -14 3 -14 -20 -4 -26 12 -35 29 -16 29 6 0 10 14 10 31 0 27 -2 30 -15 19 -8 -7 -15 -19 -15 -27 0 -32 -20 1 -31 54 -12 52 -14 54 -20 28 -11 -39 28 -112 86 -159 47 -39 82 -83 73 -92 -3 -3 -35 14 -72 37 -52 33 -64 44 -55 55 15 18 2 39 -16 24 -17 -14 -51 28 -35 44 13 13 13 46 0 46 -5 0 -13 -7 -18 -16 -8 -14 -12 -13 -43 5 -39 24 -63 28 -33 6 17 -13 16 -14 -21 -8 -22 3 -42 10 -43 15 -8 18 -43 -43 -40 -69 3 -26 4 -26 21 -8 10 10 16 26 14 36 -10 39 86 19 136 -29 33 -31 34 -42 5 -35 -16 3 -11 -3 15 -18 27 -17 36 -28 31 -41 -6 -20 6 -24 23 -7 14 14 103 -69 103 -96 0 -19 1 -20 -65 34 -37 29 -83 49 -139 60 -41 8 -43 7 -54 -23 -8 -19 -8 -34 -2 -40 13 -13 40 11 40 36 0 25 24 18 98 -25 58 -35 89 -63 79 -73 -10 -11 -126 37 -121 49 2 7 -1 19 -6 27 -9 13 -11 13 -19 1 -5 -8 -7 -20 -5 -26 4 -8 -12 -12 -50 -14 -50 -1 -54 0 -49 19 3 11 0 20 -6 20 -10 0 -12 -5 -11 -27 1 -5 -14 -11 -32 -14 -25 -5 -18 -7 29 -8 121 -2 202 -29 261 -84 54 -52 37 -117 -31 -117 -50 0 -156 19 -224 40 -57 18 -66 18 -104 5 -23 -8 -43 -15 -44 -15 -10 0 -27 77 -32 145 l-6 80 21 -19 c24 -20 55 -15 46 8 -3 8 -18 16 -32 18 -23 3 -27 7 -24 33 2 17 10 51 18 77 14 43 18 47 40 42 24 -6 54 9 54 28 0 6 -14 8 -30 6 -17 -3 -30 -2 -30 2 0 12 57 95 78 113 17 15 23 16 40 6 11 -7 28 -9 38 -5 18 7 18 8 1 21 -11 8 -26 11 -35 9 -10 -3 1 10 23 30 47 42 57 44 70 14 6 -13 18 -24 28 -26 25 -5 22 35 -5 49 -21 11 -21 12 13 30 44 23 47 23 51 -3 2 -13 11 -24 21 -26 21 -4 22 16 1 39 -14 16 -12 18 38 27 29 5 55 10 58 11 3 0 10 -14 15 -31z m-299 -685 c88 -24 82 -37 -15 -29 -63 5 -81 3 -91 -9 -14 -16 -40 -20 -40 -6 0 5 -2 16 -5 23 -7 17 28 36 63 37 13 1 53 -7 88 -16z m639 -44 c20 -18 34 -34 31 -36 -3 -3 -30 4 -61 16 -31 12 -66 21 -78 21 -21 1 -22 1 -3 15 32 24 72 18 111 -16z m-573 -3 c158 -2 186 -28 53 -50 -28 -5 -60 -1 -104 13 -59 18 -67 19 -94 5 -16 -9 -26 -18 -23 -22 4 -3 12 0 18 6 7 7 19 12 27 12 13 0 81 -30 110 -48 11 -6 -21 -24 -59 -33 -48 -11 -64 -2 -102 59 l-21 35 23 19 c14 11 30 16 39 12 9 -4 69 -8 133 -8z m523 -36 c3 -5 20 -10 36 -10 22 0 32 -6 39 -25 11 -28 28 -34 26 -8 -1 12 9 19 34 23 20 3 41 10 48 14 18 11 15 -2 -9 -35 -16 -23 -26 -28 -42 -24 -17 5 -19 4 -7 -4 12 -8 11 -14 -9 -35 l-24 -26 -46 41 c-25 22 -52 45 -58 50 -15 11 -17 49 -4 49 6 0 13 -4 16 -10z m-53 -17 c10 -9 18 -24 18 -35 0 -10 14 -33 30 -50 34 -35 38 -80 9 -86 -24 -4 -79 46 -79 73 0 12 -7 28 -16 35 -39 33 -40 80 -1 80 11 0 29 -7 39 -17z m-279 -34 c-6 -6 -33 -13 -61 -18 -32 -5 -64 -18 -87 -37 -77 -61 -80 -62 -114 -30 -35 33 -34 38 11 43 17 2 46 12 64 22 18 11 54 23 81 27 26 4 61 13 78 20 26 11 30 10 33 -3 2 -8 0 -19 -5 -24z m77 3 c0 -15 -14 -47 -30 -71 -23 -34 -30 -55 -30 -93 0 -26 -2 -48 -4 -48 -20 0 -32 14 -29 34 3 13 -2 37 -11 54 -9 17 -16 35 -16 40 0 14 104 120 113 115 4 -2 7 -16 7 -31z m104 -24 c8 -14 6 -26 -8 -52 -18 -34 -18 -35 3 -64 29 -41 27 -60 -6 -64 -25 -3 -29 1 -41 42 -21 70 -25 116 -12 139 13 26 47 25 64 -1z m200 -29 c31 -37 32 -45 6 -59 -17 -9 -20 -8 -20 14 0 14 -4 28 -10 31 -5 3 -15 15 -20 26 -17 32 14 24 44 -12z m-467 -8 c-16 -10 -39 -34 -53 -54 -22 -33 -27 -35 -49 -25 -25 11 -34 28 -15 28 6 0 22 11 35 24 34 34 55 45 85 46 l25 0 -28 -19z m328 -28 c9 -21 26 -46 38 -55 l22 -17 -37 -15 c-21 -9 -41 -16 -45 -16 -4 1 -18 21 -30 45 l-22 44 22 26 c12 13 25 25 29 25 4 0 15 -17 23 -37z m-139 -61 c23 -53 19 -62 -26 -62 l-40 0 0 52 c0 35 6 58 17 70 17 19 18 19 26 -4 5 -13 15 -38 23 -56z m-152 36 c15 -29 22 -88 11 -88 -2 0 -29 9 -60 21 l-56 21 17 26 c37 60 66 66 88 20z"
       id="path1"
       style="fill:#b0ad26;fill-opacity:1" />
    <path
       d="M750 1052 c0 -22 13 -42 27 -42 21 0 12 44 -9 48 -10 2 -18 -1 -18 -6z"
       id="path2"
       style="fill:#b0ad26;fill-opacity:1" />
    <path
       d="M407 1010 c-6 -16 -17 -30 -24 -30 -7 0 -13 -4 -13 -10 0 -5 11 -10 25 -10 14 0 25 -5 25 -12 0 -6 3 -8 6 -5 4 4 2 13 -5 20 -9 11 -8 17 4 27 17 14 20 50 4 50 -6 0 -16 -13 -22 -30z"
       id="path3"
       style="fill:#b0ad26;fill-opacity:1" />
    <path
       d="M542 1018 c9 -13 27 -24 41 -26 14 -2 28 -11 30 -20 3 -10 5 -7 6 9 1 33 -27 59 -64 59 -26 0 -27 -1 -13 -22z"
       id="path4"
       style="fill:#b0ad26;fill-opacity:1" />
    <path
       d="M304 996 c-6 -17 2 -36 17 -36 12 0 12 37 -1 45 -6 3 -13 -1 -16 -9z"
       id="path5"
       style="fill:#b0ad26;fill-opacity:1" />
    <path
       d="M318 928 l-23 -23 24 -3 c15 -3 30 3 37 13 7 9 18 14 24 10 8 -5 8 -10 0 -21 -18 -21 -7 -40 12 -21 8 9 18 13 22 10 3 -4 6 -1 6 5 0 10 -60 52 -74 52 -3 0 -16 -10 -28 -22z"
       id="path6"
       style="fill:#b0ad26;fill-opacity:1" />
    <path
       d="M932 938 c-16 -16 -15 -48 1 -48 19 0 37 21 37 42 0 21 -20 24 -38 6z"
       id="path7"
       style="fill:#b0ad26;fill-opacity:1" />
    <path
       d="M222 918 c2 -12 11 -24 21 -26 24 -5 22 25 -4 38 -18 10 -20 9 -17 -12z"
       id="path8"
       style="fill:#b0ad26;fill-opacity:1" />
    <path
       d="M270 893 c0 -22 2 -25 10 -13 13 20 13 40 0 40 -5 0 -10 -12 -10 -27z"
       id="path9"
       style="fill:#b0ad26;fill-opacity:1" />
    <path
       d="M180 881 c0 -21 13 -41 26 -41 17 0 18 22 2 38 -14 14 -28 16 -28 3z"
       id="path10"
       style="fill:#b0ad26;fill-opacity:1" />
    <path
       d="M945 840 c-3 -11 -2 -27 3 -36 9 -16 11 -15 21 4 11 21 6 52 -9 52 -5 0 -11 -9 -15 -20z"
       id="path11"
       style="fill:#b0ad26;fill-opacity:1" />
    <path
       d="M300 798 c0 -32 15 -45 24 -21 4 9 0 23 -9 32 -13 14 -15 13 -15 -11z"
       id="path12"
       style="fill:#b0ad26;fill-opacity:1" />
    <path
       d="M1018 779 c-24 -14 -23 -39 2 -39 16 0 40 26 40 44 0 9 -23 6 -42 -5z"
       id="path13"
       style="fill:#b0ad26;fill-opacity:1" />
    <path
       d="M238 769 c-27 -15 -21 -31 10 -27 15 2 27 9 27 17 0 19 -16 23 -37 10z"
       id="path14"
       style="fill:#b0ad26;fill-opacity:1" />
    <path
       d="M860 768 c0 -8 3 -18 8 -22 4 -4 7 -13 7 -19 0 -7 11 -13 25 -15 22 -2 23 -1 9 10 -9 8 -18 22 -20 32 -5 23 -29 34 -29 14z"
       id="path15"
       style="fill:#b0ad26;fill-opacity:1" />
    <path
       d="M326 754 c-15 -40 4 -48 22 -9 9 20 9 25 -2 25 -8 0 -17 -7 -20 -16z"
       id="path16"
       style="fill:#b0ad26;fill-opacity:1" />
    <path
       d="M910 759 c0 -5 5 -7 10 -4 6 3 10 8 10 11 0 2 -4 4 -10 4 -5 0 -10 -5 -10 -11z"
       id="path17"
       style="fill:#b0ad26;fill-opacity:1" />
    <path
       d="M172 730 c2 -18 8 -35 13 -37 17 -5 16 44 -1 58 -14 11 -15 9 -12 -21z"
       id="path18"
       style="fill:#b0ad26;fill-opacity:1" />
    <path
       d="M100 731 c0 -16 30 -33 46 -27 13 5 14 9 4 21 -13 16 -50 21 -50 6z"
       id="path19"
       style="fill:#b0ad26;fill-opacity:1" />
    <path
       d="M277 724 c-3 -3 -3 -12 0 -20 4 -10 -3 -14 -24 -14 -29 0 -59 -32 -47 -51 8 -13 34 8 34 27 0 9 11 14 30 14 24 0 29 4 27 20 -4 23 -11 32 -20 24z"
       id="path20"
       style="fill:#b0ad26;fill-opacity:1" />
    <path
       d="M166 653 c-3 -3 -6 -14 -6 -22 0 -9 -9 -22 -20 -29 -22 -14 -27 -32 -8 -32 15 0 58 49 58 66 0 15 -15 26 -24 17z"
       id="path21"
       style="fill:#b0ad26;fill-opacity:1" />
  </g>
</svg>
